<svg id="Слой_1" data-name="Слой 1" xmlns="http://www.w3.org/2000/svg" viewBox="0 0 513.02 513.02"><defs><style>.cls-1{fill:#c6c6c6;}.cls-1,.cls-2,.cls-3,.cls-4,.cls-5,.cls-6{stroke:#1d1d1b;stroke-miterlimit:10;}.cls-2{fill:#fff;}.cls-3{fill:#dadada;}.cls-4{fill:#009640;}.cls-5{fill:#ffed00;}.cls-6{fill:#e30613;}.cls-7{font-size:103.71px;font-family:LucidaConsole, Lucida Console;}</style></defs><rect class="cls-1" x="0.5" y="0.52" width="512" height="512"/><path class="cls-2" d="M491.32,314.65l-.71-.78c-2.74-2-5.48-4.21-8.12-6.56a22,22,0,0,0-1.56,11.39,20,20,0,0,0,7.52,13c.25-.05.49-.13.75-.18a7.45,7.45,0,0,1,3.79.2A47.21,47.21,0,0,1,491.32,314.65Z" transform="translate(0.5 0.52)"/><path class="cls-2" d="M500.79,303.44a7.82,7.82,0,0,1,4.6,3.18l.51.33a7.54,7.54,0,0,1,1.07.82c1.26-6.08,2.32-12.22,3.13-18.45a51.5,51.5,0,0,0-15,4.57A42.64,42.64,0,0,0,500.79,303.44Z" transform="translate(0.5 0.52)"/><path class="cls-2" d="M481.05,199.14c5.22,8.88,17,12.49,27.56,13.54q-1.33-7.76-3.13-15.36A111.89,111.89,0,0,1,481.05,199.14Z" transform="translate(0.5 0.52)"/><path class="cls-2" d="M488.81,148.85a255.51,255.51,0,0,0-20.76-36.68c-5.3,7.93-9.25,17-10.12,26a6.15,6.15,0,0,1,3.69,8.13,50.82,50.82,0,0,0-1.9,7,32.84,32.84,0,0,0,3.4,6.78c2.81,4.27.31,8.36-3.36,9.91,1.41,5.36,4.54,9.92,10.29,12.24,9.19,3.7,20.9,2.94,31.74,1.15-2.14-7.24-4.57-14.36-7.32-21.31-.28.13-.55.28-.82.43s-.85.59-1.19.8l-.3.28c5.38,6.79-4.45,16.35-10.61,9.69-5.28-5.72-5.45-13.13-.38-19A20.66,20.66,0,0,1,488.81,148.85Z" transform="translate(0.5 0.52)"/><path class="cls-2" d="M381,32.41c-1.95-1.09-3.92-2.17-5.9-3.21.24,1.6.52,3.18.82,4.76C377.65,33.52,379.35,33,381,32.41Z" transform="translate(0.5 0.52)"/><path class="cls-2" d="M395.43,41.12a62.76,62.76,0,0,1-15.55,6.5,37.86,37.86,0,0,0,3.33,6.18A6.92,6.92,0,0,1,388,58.49c3.77,11.54,20.89,15.56,31.19,17.62a104.38,104.38,0,0,0,21.38,2.23A257,257,0,0,0,395.43,41.12Z" transform="translate(0.5 0.52)"/><path class="cls-2" d="M250.37,4.65A6.81,6.81,0,0,1,252.07,0c-7.25.11-14.44.53-21.53,1.23,0,.25,0,.5-.06.74a173,173,0,0,0,19.85,8C250.39,7.93,250.36,6.06,250.37,4.65Z" transform="translate(0.5 0.52)"/><path class="cls-2" d="M263.17.05a6.74,6.74,0,0,1,1.61,4.6,72.7,72.7,0,0,1-.61,9.15A128.78,128.78,0,0,0,276.91,16c7.61.93,16.6,1.44,23.66-2.1a14.05,14.05,0,0,0,1.48-.87,7.56,7.56,0,0,1,3.36-3.23,14.81,14.81,0,0,0,2.19-4.69A255.78,255.78,0,0,0,263.17.05Z" transform="translate(0.5 0.52)"/><path class="cls-2" d="M318.5,16.68c9.49,11.7,22.32,19.49,37.92,19.57,1.85,0,3.82,0,5.84-.19-.85-4.69-1.53-9.45-2.28-14.17A254.1,254.1,0,0,0,321.81,8.47,28.63,28.63,0,0,1,318.5,16.68Z" transform="translate(0.5 0.52)"/><path class="cls-2" d="M246,23.25c-3.47-1.11-6.82-2.28-10-3.47a14.08,14.08,0,0,0,4.33,3.11C242.79,24,244.62,24,246,23.25Z" transform="translate(0.5 0.52)"/><path class="cls-2" d="M45.66,169.44a49.41,49.41,0,0,0,8.56-30.2c-.09-1.9-.27-3.79-.52-5.67-8.71.75-12.27-12.61-3.31-13.94l.15,0c-1.14-3.67-2.48-7.28-3.94-10.84A254.79,254.79,0,0,0,20.35,155.9,58.94,58.94,0,0,1,45.66,169.44Z" transform="translate(0.5 0.52)"/><path class="cls-2" d="M15.12,169.22a253.65,253.65,0,0,0-10,35.48,121.59,121.59,0,0,0,31.38-24C30.94,175.57,22.77,170.43,15.12,169.22Z" transform="translate(0.5 0.52)"/><path class="cls-2" d="M62.05,109.05q1.06,2.92,2,5.9a53.17,53.17,0,0,0,7.43-4.89A80,80,0,0,1,62.05,109.05Z" transform="translate(0.5 0.52)"/><path class="cls-2" d="M4.7,238.55a85.16,85.16,0,0,0-3.06-11.28A256.75,256.75,0,0,0,0,256c0,6.07.23,12.09.64,18,2.49-1.38,4.93-2.85,7.35-4.36,0-.49,0-1,0-1.45A166,166,0,0,0,4.7,238.55Z" transform="translate(0.5 0.52)"/><path class="cls-2" d="M37.54,221.84c7.14-8.47,10.53-19.27,7.34-29.05A132.94,132.94,0,0,1,13,217c6.52,12.61,8.32,28.58,9,42.73.75-.59,1.52-1.17,2.26-1.77C32.64,251,41.6,242.07,47.66,232.1,41.67,239,31.63,228.86,37.54,221.84Z" transform="translate(0.5 0.52)"/><path class="cls-2" d="M2.19,289.55q.86,6.52,2.05,12.94a74.21,74.21,0,0,0,3.23-15.84C5.74,287.63,4,288.61,2.19,289.55Z" transform="translate(0.5 0.52)"/><path class="cls-2" d="M22.82,347.46c5.08-16.55,5.11-34.1-2.72-48.58A69.26,69.26,0,0,1,9.31,324.55,251.85,251.85,0,0,0,18,350.25,6.81,6.81,0,0,1,22.82,347.46Z" transform="translate(0.5 0.52)"/><path class="cls-2" d="M29.27,368.62c-.53,1-1.08,2.07-1.64,3.09A256.55,256.55,0,0,0,51.2,409.53C47.28,394,40.19,379.26,29.27,368.62Z" transform="translate(0.5 0.52)"/><path class="cls-2" d="M85.45,446.8a80.21,80.21,0,0,1,19.66-7.47c-2.28-2.56-4.69-5-7-7.24-9.9-9.81-21.21-19.59-33.32-27.29a136,136,0,0,1,4.31,26.08Q76.92,439.21,85.45,446.8Z" transform="translate(0.5 0.52)"/><path class="cls-2" d="M113.73,452a55.68,55.68,0,0,0-16.54,4.68q5.88,4.65,12,9c2.43-1.05,4.68-2.48,5.82-4.59.87-1.62.57-4.08-.4-6.87C114.35,453.46,114.05,452.73,113.73,452Z" transform="translate(0.5 0.52)"/><path class="cls-2" d="M181.84,501c3.13.95,6.29,1.81,9.46,2.63a35.9,35.9,0,0,1,4.77-6.23c-.42-2.22-.93-4.36-1.5-6.32-2.31-7.95-6.58-17.44-13.77-22.33a22.26,22.26,0,0,0-6.31,0c5.77,7.63,10.59,16.87,9.16,26.23A22.13,22.13,0,0,1,181.84,501Z" transform="translate(0.5 0.52)"/><path class="cls-2" d="M140.81,476.49c-9.29.32-9.25-14.08,0-14.4a42.55,42.55,0,0,0,6.39-.76c-2.18-1.85-4.4-3.64-6.64-5.41a7.43,7.43,0,0,1-4.87-.49,43.89,43.89,0,0,0-6.88-2.38c2.25,8.14.82,15.59-6.36,21.32a254.9,254.9,0,0,0,45.39,22,7.63,7.63,0,0,0,1.68-4.19c.49-6.64-4.73-13.71-10.11-19.4C153.35,474.58,147.29,476.27,140.81,476.49Z" transform="translate(0.5 0.52)"/><path class="cls-2" d="M374.63,482.88A36.19,36.19,0,0,0,356.16,478c-12.47.09-23.46,6.67-33.62,14.45a55.57,55.57,0,0,1,6.55,9A254.43,254.43,0,0,0,374.54,483Z" transform="translate(0.5 0.52)"/><path class="cls-2" d="M458.88,409.51c-2.34-2.22-8.12-8.81-12-8.62.29.07-.43.54-.88,1.31a17.67,17.67,0,0,0-1.58,5.58,123.56,123.56,0,0,0-1.31,12.61c-.22,2.78-.45,5.62-.58,8.49.75.05,1.5.11,2.25.21q8.08-8.8,15.32-18.35C459.71,410.33,459.3,409.91,458.88,409.51Z" transform="translate(0.5 0.52)"/><path class="cls-2" d="M471.62,392.57a6.45,6.45,0,0,1,1.67-.8c.15-.23.29-.46.43-.69-3.78-4.77-6.79-10.29-7.28-16C465.52,381.48,466.91,387.72,471.62,392.57Z" transform="translate(0.5 0.52)"/><path class="cls-2" d="M473.56,358.85c5.09-4.47,12-7.05,18.71-8.71a47.36,47.36,0,0,1-5.63-2.52A37.93,37.93,0,0,0,473.56,358.85Z" transform="translate(0.5 0.52)"/><path class="cls-2" d="M249.37,494.36c-10-1.48-27.27,1-38.15,8.3.12,1.8.17,3.6.13,5.4q7.74,1.38,15.63,2.26c7.36-5.17,16.14-10.8,25.06-13.36l2.08-1.53A33.39,33.39,0,0,0,249.37,494.36Z" transform="translate(0.5 0.52)"/><path class="cls-3" d="M464.83,196.88a6.52,6.52,0,0,1-.14-1.22,34,34,0,0,1-4.9-2.55c-13.08-8.28-16.73-24-14.89-38.57-5-18.53,2.48-38.91,14.23-54.67-2.12-2.76-4.31-5.45-6.54-8.11-13.26,2.28-27.95.46-40.51-2.47-12.91-3-27.42-8.77-34.75-20.23-.22-.18-.43-.38-.64-.59a46.83,46.83,0,0,1-10.92-18.26,92.65,92.65,0,0,1-9.35.44c-19.85-.09-36.27-9.72-48.52-24.33-12.2,6.12-30.17,4.9-47.38.93-3.86,8.25-10.83,13.6-22.78,10-14-4.25-22-19.66-21.86-34.11q-2.62.42-5.24.89a7,7,0,0,1-.41,1.81c-5.08,14.22-6.43,33.46-21.9,40.73C176.81,52,163.33,50.17,151,46c0,.66,0,1.34,0,2-.62,13.56-10.74,22.11-22.59,25.82-3.06,10.49-9.62,20.4-17.28,25.88a54.21,54.21,0,0,1-17.59,8.08A64.56,64.56,0,0,1,67.6,129.54a84.58,84.58,0,0,1,1,9.7c.67,14.84-4,28.31-12.45,40.18a7.32,7.32,0,0,1,4.58,3A46.16,46.16,0,0,1,68,221.35c-6,23.55-25.75,42.38-45.62,56,0,.18,0,.36,0,.54,20.87,20.5,22.31,50.12,12.87,76.86,9.71,8.28,17.19,19,22.67,30.95a7.27,7.27,0,0,1,4,.83c13,6.64,44.15,29.3,59.31,51.31.91,0,1.82.09,2.73.17,1.54-4.19,7.58-7.27,12.31-3.52,9.18,7.28,18.83,14.14,27.34,22.23,2.18-.65,4.39-1.25,6.61-1.73a7.21,7.21,0,0,1,7.49-3,28,28,0,0,1,8,2.84,28.39,28.39,0,0,1,17.66,13.76,53.77,53.77,0,0,1,6.34,18.93c12-6.12,26.51-8.77,38.25-7.69a49,49,0,0,1,20.74,6.44c11.84-6.23,24.77-9.67,37.39-5.2a35.09,35.09,0,0,1,5.37,2.42c15-11.56,31-21.8,51.08-19.52A49.71,49.71,0,0,1,383,471.05c7.05-8.7,15.27-16.65,22.81-24.32,6.33-6.44,13.65-12.55,22.22-15.72.12-6,.73-12,1.35-17.76,1-8.84,1.85-20.4,10.73-25.15,4.34-2.33,8.76-2.2,13.1-.62-4.2-17.69,5.25-38.9,21.1-49.66a34.25,34.25,0,0,1-6.53-12.07c-2.95-9.73-1-20.75,4.2-29.57-7.92-10.26-12.42-22.34-8.41-35.54,5.16-17,20-28.57,36.61-33.46.58-.34,1.17-.66,1.78-1C485.18,223.25,468.35,214.61,464.83,196.88Z" transform="translate(0.5 0.52)"/><path class="cls-2" d="M477.63,263.92c-.26.81-.48,1.63-.66,2.47a21.24,21.24,0,0,0-.19,7.61A66.66,66.66,0,0,1,477.63,263.92Z" transform="translate(0.5 0.52)"/><path class="cls-2" d="M501.48,254.53c.11-4.08,1.62-7.82,2.76-11.67a8.46,8.46,0,0,1,.72-1.64c-5.14,3.92-8.72,9.86-10.84,15.87a52.52,52.52,0,0,0-2.68,22.49,67.66,67.66,0,0,1,20.15-4.87c.17-2.36.3-4.73.41-7.1a7.2,7.2,0,0,1-3.7-1A13.22,13.22,0,0,1,501.48,254.53Z" transform="translate(0.5 0.52)"/><path class="cls-2" d="M259.63,510c-.47.05-.95.13-1.42.21L256,512h.19c4.46,0,8.9-.13,13.31-.36A19.19,19.19,0,0,0,259.63,510Z" transform="translate(0.5 0.52)"/><path class="cls-2" d="M295.59,495.78l2.63-2c-6-1.14-12.18.14-18.2,2.67a47.27,47.27,0,0,1,4.54,7.42c2.58,1.74,5.11,3.64,7.61,5.59,1.38-.2,2.75-.42,4.11-.63C292.33,506.5,290.6,499.52,295.59,495.78Z" transform="translate(0.5 0.52)"/><path class="cls-2" d="M303.73,507.56q5.52-1,11-2.31a35.92,35.92,0,0,0-3.2-3.9C308.86,503.51,306.28,505.61,303.73,507.56Z" transform="translate(0.5 0.52)"/><path class="cls-2" d="M130,57.67c4.06-2.53,7-6.34,6.57-11.59s-4.35-8.87-9-11.53q-4.22,2.46-8.32,5.08C125.83,44,129.11,50.47,130,57.67Z" transform="translate(0.5 0.52)"/><path class="cls-2" d="M84.87,94.64c5.77-10,7.92-21.6,3.81-32.28A256.47,256.47,0,0,0,58.13,93.64,61.38,61.38,0,0,0,84.87,94.64Z" transform="translate(0.5 0.52)"/><path class="cls-2" d="M116,62c-.09-4.94-2.12-9.27-7.13-11.74a6.9,6.9,0,0,1-2.48-2c-2.1,1.51-4.16,3.05-6.2,4.62,5.51,11,6,23.13,2.86,34.64a38.58,38.58,0,0,0,10.14-13.64C110.34,70.64,111.3,64.1,116,62Z" transform="translate(0.5 0.52)"/><path class="cls-2" d="M182.52,33.43c8-4.31,10-16.65,12.27-26a254.3,254.3,0,0,0-52.63,19.29C153.28,32.3,170.83,39.68,182.52,33.43Z" transform="translate(0.5 0.52)"/><path class="cls-2" d="M483.23,369.59c-2.86,2.46-2.81,5.18-1.57,7.82q2.73-5.06,5.23-10.24A20.36,20.36,0,0,0,483.23,369.59Z" transform="translate(0.5 0.52)"/><ellipse class="cls-4" cx="347.19" cy="165.97" rx="90.56" ry="90.52"/><ellipse class="cls-5" cx="347.19" cy="347.01" rx="90.56" ry="90.52"/><ellipse class="cls-6" cx="166.44" cy="346.65" rx="90.92" ry="90.88"/><text class="cls-7" transform="translate(315.94 197.84)">E</text><text class="cls-7" transform="translate(315.94 381.08)">A</text><text class="cls-7" transform="translate(135.18 381.08)">E</text></svg>